<?xml version="1.0" encoding="UTF-8" standalone="no"?><svg xmlns="http://www.w3.org/2000/svg" xmlns:xlink="http://www.w3.org/1999/xlink" contentScriptType="application/ecmascript" contentStyleType="text/css" height="807px" preserveAspectRatio="none" style="width:604px;height:807px;" version="1.1" viewBox="0 0 604 807" width="604px" zoomAndPan="magnify"><defs><filter height="300%" id="fx7wqc1khxiyo" width="300%" x="-1" y="-1"><feGaussianBlur result="blurOut" stdDeviation="2.0"/><feColorMatrix in="blurOut" result="blurOut2" type="matrix" values="0 0 0 0 0 0 0 0 0 0 0 0 0 0 0 0 0 0 .4 0"/><feOffset dx="4.0" dy="4.0" in="blurOut2" result="blurOut3"/><feBlend in="SourceGraphic" in2="blurOut3" mode="normal"/></filter></defs><g><text fill="#000000" font-family="sans-serif" font-size="18" lengthAdjust="spacing" textLength="211" x="190" y="17.4023">MasterMind - Methods()</text><text fill="#000000" font-family="sans-serif" font-size="18" lengthAdjust="spacing" textLength="0" x="298.5" y="38.6016"/><!--MD5=[7283a9eed84464550b6d5ebf39c68b05]
class Mastermind--><rect codeLine="4" fill="#FEFECE" filter="url(#fx7wqc1khxiyo)" height="86.8652" id="Mastermind" style="stroke:#A80036;stroke-width:1.5;" width="117" x="298" y="49.3984"/><ellipse cx="320.65" cy="65.3984" fill="#ADD1B2" rx="11" ry="11" style="stroke:#A80036;stroke-width:1.0;"/><path d="M323.1231,71.5415 Q322.5421,71.8403 321.9029,71.9897 Q321.2638,72.1392 320.5582,72.1392 Q318.0514,72.1392 316.7315,70.4873 Q315.4117,68.8354 315.4117,65.7144 Q315.4117,62.585 316.7315,60.9331 Q318.0514,59.2813 320.5582,59.2813 Q321.2638,59.2813 321.9112,59.4307 Q322.5587,59.5801 323.1231,59.8789 L323.1231,62.6016 Q322.4923,62.0205 321.8988,61.7507 Q321.3053,61.481 320.6744,61.481 Q319.3297,61.481 318.6449,62.5476 Q317.9601,63.6143 317.9601,65.7144 Q317.9601,67.8062 318.6449,68.8728 Q319.3297,69.9395 320.6744,69.9395 Q321.3053,69.9395 321.8988,69.6697 Q322.4923,69.3999 323.1231,68.8188 Z " fill="#000000"/><text fill="#000000" font-family="sans-serif" font-size="12" lengthAdjust="spacing" textLength="68" x="336.35" y="69.9336">Mastermind</text><line style="stroke:#A80036;stroke-width:1.5;" x1="299" x2="414" y1="81.3984" y2="81.3984"/><line style="stroke:#A80036;stroke-width:1.5;" x1="299" x2="414" y1="89.3984" y2="89.3984"/><text fill="#000000" font-family="sans-serif" font-size="11" lengthAdjust="spacing" textLength="30" x="304" y="104.0332">play()</text><text fill="#000000" font-family="sans-serif" font-size="11" lengthAdjust="spacing" textLength="104" x="304" y="116.9883">getCodeKeyboard()</text><text fill="#000000" font-family="sans-serif" font-size="11" lengthAdjust="spacing" textLength="105" x="304" y="129.9434">showResultScreen()</text><!--MD5=[2cb47ba637a0d19583e6199456f6ad0b]
class Player--><rect codeLine="10" fill="#FEFECE" filter="url(#fx7wqc1khxiyo)" height="48" id="Player" style="stroke:#A80036;stroke-width:1.5;" width="67" x="323" y="196.3984"/><ellipse cx="338" cy="212.3984" fill="#ADD1B2" rx="11" ry="11" style="stroke:#A80036;stroke-width:1.0;"/><path d="M340.4731,218.5415 Q339.8921,218.8403 339.2529,218.9897 Q338.6138,219.1392 337.9082,219.1392 Q335.4014,219.1392 334.0815,217.4873 Q332.7617,215.8354 332.7617,212.7144 Q332.7617,209.585 334.0815,207.9331 Q335.4014,206.2813 337.9082,206.2813 Q338.6138,206.2813 339.2612,206.4307 Q339.9087,206.5801 340.4731,206.8789 L340.4731,209.6016 Q339.8423,209.0205 339.2488,208.7507 Q338.6553,208.481 338.0244,208.481 Q336.6797,208.481 335.9949,209.5476 Q335.3101,210.6143 335.3101,212.7144 Q335.3101,214.8062 335.9949,215.8728 Q336.6797,216.9395 338.0244,216.9395 Q338.6553,216.9395 339.2488,216.6697 Q339.8423,216.3999 340.4731,215.8188 Z " fill="#000000"/><text fill="#000000" font-family="sans-serif" font-size="12" lengthAdjust="spacing" textLength="35" x="352" y="216.9336">Player</text><line style="stroke:#A80036;stroke-width:1.5;" x1="324" x2="389" y1="228.3984" y2="228.3984"/><line style="stroke:#A80036;stroke-width:1.5;" x1="324" x2="389" y1="236.3984" y2="236.3984"/><!--MD5=[f988dfb2c51f82beb248a68b00ebb2ba]
class MakerPlayer--><rect codeLine="13" fill="#FEFECE" filter="url(#fx7wqc1khxiyo)" height="99.8203" id="MakerPlayer" style="stroke:#A80036;stroke-width:1.5;" width="167" x="205" y="304.3984"/><ellipse cx="248.8" cy="320.3984" fill="#ADD1B2" rx="11" ry="11" style="stroke:#A80036;stroke-width:1.0;"/><path d="M251.2731,326.5415 Q250.6921,326.8403 250.0529,326.9897 Q249.4138,327.1392 248.7082,327.1392 Q246.2014,327.1392 244.8815,325.4873 Q243.5617,323.8354 243.5617,320.7144 Q243.5617,317.585 244.8815,315.9331 Q246.2014,314.2813 248.7082,314.2813 Q249.4138,314.2813 250.0612,314.4307 Q250.7087,314.5801 251.2731,314.8789 L251.2731,317.6016 Q250.6423,317.0205 250.0488,316.7507 Q249.4553,316.481 248.8244,316.481 Q247.4797,316.481 246.7949,317.5476 Q246.1101,318.6143 246.1101,320.7144 Q246.1101,322.8062 246.7949,323.8728 Q247.4797,324.9395 248.8244,324.9395 Q249.4553,324.9395 250.0488,324.6697 Q250.6423,324.3999 251.2731,323.8188 Z " fill="#000000"/><text fill="#000000" font-family="sans-serif" font-size="12" lengthAdjust="spacing" textLength="71" x="269.2" y="324.9336">MakerPlayer</text><line style="stroke:#A80036;stroke-width:1.5;" x1="206" x2="371" y1="336.3984" y2="336.3984"/><line style="stroke:#A80036;stroke-width:1.5;" x1="206" x2="371" y1="344.3984" y2="344.3984"/><text fill="#000000" font-family="sans-serif" font-size="11" lengthAdjust="spacing" textLength="95" x="211" y="359.0332">putCombination()</text><text fill="#000000" font-family="sans-serif" font-size="11" lengthAdjust="spacing" textLength="155" x="211" y="371.9883">isCorrectCombinationInput()</text><text fill="#000000" font-family="sans-serif" font-size="11" lengthAdjust="spacing" textLength="82" x="211" y="384.9434">getBlankWhite()</text><text fill="#000000" font-family="sans-serif" font-size="11" lengthAdjust="spacing" textLength="109" x="211" y="397.8984">checkWinnerResult()</text><!--MD5=[d35e1b11918d6cec274121250b83576e]
class BreakerPlayer--><rect codeLine="20" fill="#FEFECE" filter="url(#fx7wqc1khxiyo)" height="73.9102" id="BreakerPlayer" style="stroke:#A80036;stroke-width:1.5;" width="167" x="417" y="464.3984"/><ellipse cx="456.75" cy="480.3984" fill="#ADD1B2" rx="11" ry="11" style="stroke:#A80036;stroke-width:1.0;"/><path d="M459.2231,486.5415 Q458.6421,486.8403 458.0029,486.9897 Q457.3638,487.1392 456.6582,487.1392 Q454.1514,487.1392 452.8315,485.4873 Q451.5117,483.8354 451.5117,480.7144 Q451.5117,477.585 452.8315,475.9331 Q454.1514,474.2813 456.6582,474.2813 Q457.3638,474.2813 458.0112,474.4307 Q458.6587,474.5801 459.2231,474.8789 L459.2231,477.6016 Q458.5923,477.0205 457.9988,476.7507 Q457.4053,476.481 456.7744,476.481 Q455.4297,476.481 454.7449,477.5476 Q454.0601,478.6143 454.0601,480.7144 Q454.0601,482.8062 454.7449,483.8728 Q455.4297,484.9395 456.7744,484.9395 Q457.4053,484.9395 457.9988,484.6697 Q458.5923,484.3999 459.2231,483.8188 Z " fill="#000000"/><text fill="#000000" font-family="sans-serif" font-size="12" lengthAdjust="spacing" textLength="80" x="476.25" y="484.9336">BreakerPlayer</text><line style="stroke:#A80036;stroke-width:1.5;" x1="418" x2="583" y1="496.3984" y2="496.3984"/><line style="stroke:#A80036;stroke-width:1.5;" x1="418" x2="583" y1="504.3984" y2="504.3984"/><text fill="#000000" font-family="sans-serif" font-size="11" lengthAdjust="spacing" textLength="95" x="423" y="519.0332">putCombination()</text><text fill="#000000" font-family="sans-serif" font-size="11" lengthAdjust="spacing" textLength="155" x="423" y="531.9883">isCorrectCombinationInput()</text><!--MD5=[28491d17d5ee38c9c116625a5ffc259a]
class Combination--><rect codeLine="24" fill="#FEFECE" filter="url(#fx7wqc1khxiyo)" height="73.9102" id="Combination" style="stroke:#A80036;stroke-width:1.5;" width="167" x="205" y="598.3984"/><ellipse cx="248.35" cy="614.3984" fill="#A9DCDF" rx="11" ry="11" style="stroke:#A80036;stroke-width:1.0;"/><path d="M248.2133,609.7466 L247.0595,614.8184 L249.3754,614.8184 Z M246.7191,607.5054 L249.7157,607.5054 L253.0609,619.8984 L250.6122,619.8984 L249.8485,616.8354 L246.5697,616.8354 L245.8227,619.8984 L243.3739,619.8984 Z " fill="#000000"/><text fill="#000000" font-family="sans-serif" font-size="12" font-style="italic" lengthAdjust="spacing" textLength="72" x="268.65" y="618.9336">Combination</text><line style="stroke:#A80036;stroke-width:1.5;" x1="206" x2="371" y1="630.3984" y2="630.3984"/><line style="stroke:#A80036;stroke-width:1.5;" x1="206" x2="371" y1="638.3984" y2="638.3984"/><text fill="#000000" font-family="sans-serif" font-size="11" lengthAdjust="spacing" textLength="95" x="211" y="653.0332">putCombination()</text><text fill="#000000" font-family="sans-serif" font-size="11" lengthAdjust="spacing" textLength="155" x="211" y="665.9883">isCorrectCombinationInput()</text><!--MD5=[e370ee5c0c15ce04544d5f5a73174d72]
class SecretCombination--><rect codeLine="28" fill="#FEFECE" filter="url(#fx7wqc1khxiyo)" height="60.9551" id="SecretCombination" style="stroke:#A80036;stroke-width:1.5;" width="139" x="7" y="732.3984"/><ellipse cx="22" cy="748.3984" fill="#ADD1B2" rx="11" ry="11" style="stroke:#A80036;stroke-width:1.0;"/><path d="M24.4731,754.5415 Q23.8921,754.8403 23.2529,754.9897 Q22.6138,755.1392 21.9082,755.1392 Q19.4014,755.1392 18.0815,753.4873 Q16.7617,751.8354 16.7617,748.7144 Q16.7617,745.585 18.0815,743.9331 Q19.4014,742.2813 21.9082,742.2813 Q22.6138,742.2813 23.2612,742.4307 Q23.9087,742.5801 24.4731,742.8789 L24.4731,745.6016 Q23.8423,745.0205 23.2488,744.7507 Q22.6553,744.481 22.0244,744.481 Q20.6797,744.481 19.9949,745.5476 Q19.3101,746.6143 19.3101,748.7144 Q19.3101,750.8062 19.9949,751.8728 Q20.6797,752.9395 22.0244,752.9395 Q22.6553,752.9395 23.2488,752.6697 Q23.8423,752.3999 24.4731,751.8188 Z " fill="#000000"/><text fill="#000000" font-family="sans-serif" font-size="12" lengthAdjust="spacing" textLength="107" x="36" y="752.9336">SecretCombination</text><line style="stroke:#A80036;stroke-width:1.5;" x1="8" x2="145" y1="764.3984" y2="764.3984"/><line style="stroke:#A80036;stroke-width:1.5;" x1="8" x2="145" y1="772.3984" y2="772.3984"/><text fill="#000000" font-family="sans-serif" font-size="11" lengthAdjust="spacing" textLength="82" x="13" y="787.0332">getBlankWhite()</text><!--MD5=[cf489b19c51ee25e76ddca093e62e620]
class ProposedCombination--><rect codeLine="32" fill="#FEFECE" filter="url(#fx7wqc1khxiyo)" height="48" id="ProposedCombination" style="stroke:#A80036;stroke-width:1.5;" width="159" x="431" y="738.8984"/><ellipse cx="446" cy="754.8984" fill="#ADD1B2" rx="11" ry="11" style="stroke:#A80036;stroke-width:1.0;"/><path d="M448.4731,761.0415 Q447.8921,761.3403 447.2529,761.4897 Q446.6138,761.6392 445.9082,761.6392 Q443.4014,761.6392 442.0815,759.9873 Q440.7617,758.3354 440.7617,755.2144 Q440.7617,752.085 442.0815,750.4331 Q443.4014,748.7813 445.9082,748.7813 Q446.6138,748.7813 447.2612,748.9307 Q447.9087,749.0801 448.4731,749.3789 L448.4731,752.1016 Q447.8423,751.5205 447.2488,751.2507 Q446.6553,750.981 446.0244,750.981 Q444.6797,750.981 443.9949,752.0476 Q443.3101,753.1143 443.3101,755.2144 Q443.3101,757.3062 443.9949,758.3728 Q444.6797,759.4395 446.0244,759.4395 Q446.6553,759.4395 447.2488,759.1697 Q447.8423,758.8999 448.4731,758.3188 Z " fill="#000000"/><text fill="#000000" font-family="sans-serif" font-size="12" lengthAdjust="spacing" textLength="127" x="460" y="759.4336">ProposedCombination</text><line style="stroke:#A80036;stroke-width:1.5;" x1="432" x2="589" y1="770.8984" y2="770.8984"/><line style="stroke:#A80036;stroke-width:1.5;" x1="432" x2="589" y1="778.8984" y2="778.8984"/><!--MD5=[62b2edce616dbe77035d94d16f9f0d8e]
class Success--><rect codeLine="35" fill="#FEFECE" filter="url(#fx7wqc1khxiyo)" height="60.9551" id="Success" style="stroke:#A80036;stroke-width:1.5;" width="167" x="205" y="470.8984"/><ellipse cx="262.25" cy="486.8984" fill="#ADD1B2" rx="11" ry="11" style="stroke:#A80036;stroke-width:1.0;"/><path d="M264.7231,493.0415 Q264.1421,493.3403 263.5029,493.4897 Q262.8638,493.6392 262.1582,493.6392 Q259.6514,493.6392 258.3315,491.9873 Q257.0117,490.3354 257.0117,487.2144 Q257.0117,484.085 258.3315,482.4331 Q259.6514,480.7813 262.1582,480.7813 Q262.8638,480.7813 263.5112,480.9307 Q264.1587,481.0801 264.7231,481.3789 L264.7231,484.1016 Q264.0923,483.5205 263.4988,483.2507 Q262.9053,482.981 262.2744,482.981 Q260.9297,482.981 260.2449,484.0476 Q259.5601,485.1143 259.5601,487.2144 Q259.5601,489.3062 260.2449,490.3728 Q260.9297,491.4395 262.2744,491.4395 Q262.9053,491.4395 263.4988,491.1697 Q264.0923,490.8999 264.7231,490.3188 Z " fill="#000000"/><text fill="#000000" font-family="sans-serif" font-size="12" lengthAdjust="spacing" textLength="44" x="282.75" y="491.4336">Success</text><line style="stroke:#A80036;stroke-width:1.5;" x1="206" x2="371" y1="502.8984" y2="502.8984"/><line style="stroke:#A80036;stroke-width:1.5;" x1="206" x2="371" y1="510.8984" y2="510.8984"/><text fill="#000000" font-family="sans-serif" font-size="11" lengthAdjust="spacing" textLength="155" x="211" y="525.5332">boolean checkWinnerResult()</text><!--MD5=[18eee71c88ab61f27581b8cbdd3ef5ee]
class Color--><rect codeLine="38" fill="#FEFECE" filter="url(#fx7wqc1khxiyo)" height="60.9551" id="Color" style="stroke:#A80036;stroke-width:1.5;" width="215" x="181" y="732.3984"/><ellipse cx="269.25" cy="748.3984" fill="#EB937F" rx="11" ry="11" style="stroke:#A80036;stroke-width:1.0;"/><path d="M272.8643,754.8984 L265.1445,754.8984 L265.1445,742.5054 L272.8643,742.5054 L272.8643,744.6636 L267.5933,744.6636 L267.5933,747.3364 L272.3662,747.3364 L272.3662,749.4946 L267.5933,749.4946 L267.5933,752.7402 L272.8643,752.7402 Z " fill="#000000"/><text fill="#000000" font-family="sans-serif" font-size="12" lengthAdjust="spacing" textLength="30" x="289.75" y="752.9336">Color</text><line style="stroke:#A80036;stroke-width:1.5;" x1="182" x2="395" y1="764.3984" y2="764.3984"/><text fill="#000000" font-family="sans-serif" font-size="11" lengthAdjust="spacing" textLength="203" x="187" y="779.0332">Red,Blue,Yellow,Green, Orange, Purple</text><line style="stroke:#A80036;stroke-width:1.5;" x1="182" x2="395" y1="785.3535" y2="785.3535"/><!--MD5=[793a7fc1781f83df3c82d6bfb51bae46]
reverse link Mastermind to Player--><path codeLine="41" d="M356.5,150.1184 C356.5,166.3184 356.5,183.1184 356.5,196.1084 " fill="none" id="Mastermind-backto-Player" style="stroke:#A80036;stroke-width:1.0;"/><polygon fill="#A80036" points="356.5,136.7384,352.5,142.7384,356.5,148.7384,360.5,142.7384,356.5,136.7384" style="stroke:#A80036;stroke-width:1.0;"/><text fill="#000000" font-family="sans-serif" font-size="13" lengthAdjust="spacing" textLength="8" x="347.475" y="185.5704">2</text><!--MD5=[b705679762bcdc77b2fe4a6d7b34f9c2]
reverse link Player to MakerPlayer--><path codeLine="42" d="M335.25,262.6584 C328.44,275.8784 320.83,290.6484 313.76,304.3684 " fill="none" id="Player-backto-MakerPlayer" style="stroke:#A80036;stroke-width:1.0;"/><polygon fill="none" points="329.12,259.2684,344.5,244.6984,341.56,265.6784,329.12,259.2684" style="stroke:#A80036;stroke-width:1.0;"/><!--MD5=[38b091ad0e7663b1475f5ae6aa4e536c]
reverse link Player to BreakerPlayer--><path codeLine="43" d="M377.86,262.7884 C405.97,317.2384 454.92,412.0884 481.69,463.9584 " fill="none" id="Player-backto-BreakerPlayer" style="stroke:#A80036;stroke-width:1.0;"/><polygon fill="none" points="371.48,265.6884,368.53,244.7084,383.92,259.2684,371.48,265.6884" style="stroke:#A80036;stroke-width:1.0;"/><!--MD5=[ed81d3472c9069d2de3c2f5cd308846f]
reverse link Combination to SecretCombination--><path codeLine="45" d="M210.02,682.8584 C182.05,699.4184 151.32,717.6084 126.41,732.3584 " fill="none" id="Combination-backto-SecretCombination" style="stroke:#A80036;stroke-width:1.0;"/><polygon fill="none" points="206.69,676.6984,227.47,672.5284,213.82,688.7384,206.69,676.6984" style="stroke:#A80036;stroke-width:1.0;"/><!--MD5=[2f10888865b2f559cc24db01ac34cee3]
reverse link Combination to ProposedCombination--><path codeLine="46" d="M370.23,682.5984 C404.11,701.7584 441.92,723.1284 469.74,738.8584 " fill="none" id="Combination-backto-ProposedCombination" style="stroke:#A80036;stroke-width:1.0;"/><polygon fill="none" points="366.38,688.4684,352.41,672.5284,373.27,676.2784,366.38,688.4684" style="stroke:#A80036;stroke-width:1.0;"/><!--MD5=[18b13c26e1d2c193878da5bba7416a2f]
link MakerPlayer to SecretCombination--><path codeLine="48" d="M235.2,404.6584 C218.31,422.2884 200.63,443.0884 187.5,464.3984 C133.6,551.8684 99.35,669.6584 84.71,727.2584 " fill="none" id="MakerPlayer-to-SecretCombination" style="stroke:#A80036;stroke-width:1.0;"/><polygon fill="#A80036" points="83.43,732.3084,89.4988,724.5515,84.646,727.4586,81.739,722.6058,83.43,732.3084" style="stroke:#A80036;stroke-width:1.0;"/><!--MD5=[74b3461dc56d0398463160c2c260fdd2]
link MakerPlayer to Success--><path codeLine="49" d="M288.5,404.4884 C288.5,424.6184 288.5,447.4384 288.5,465.7684 " fill="none" id="MakerPlayer-to-Success" style="stroke:#A80036;stroke-width:1.0;"/><polygon fill="#A80036" points="288.5,470.8184,292.5,461.8184,288.5,465.8184,284.5,461.8184,288.5,470.8184" style="stroke:#A80036;stroke-width:1.0;"/><!--MD5=[b80df01695e05b8bb04c2472d8ebb237]
link BreakerPlayer to ProposedCombination--><path codeLine="50" d="M501.89,538.4784 C503.9,590.6484 507.58,686.0584 509.41,733.5184 " fill="none" id="BreakerPlayer-to-ProposedCombination" style="stroke:#A80036;stroke-width:1.0;"/><polygon fill="#A80036" points="509.61,738.7884,513.2732,729.6462,509.4244,733.7919,505.2787,729.9431,509.61,738.7884" style="stroke:#A80036;stroke-width:1.0;"/><!--MD5=[6e8433e42d71f9427401b78cd95c6f0c]
link Combination to Color--><path codeLine="51" d="M288.5,684.6984 C288.5,684.6984 288.5,708.1884 288.5,718.7384 " fill="none" id="Combination-Color" style="stroke:#A80036;stroke-width:1.0;"/><polygon fill="#A80036" points="288.5,732.0184,292.5,723.0184,288.5,727.0184,284.5,723.0184,288.5,732.0184" style="stroke:#A80036;stroke-width:1.0;"/><line style="stroke:#A80036;stroke-width:1.0;" x1="288.5" x2="288.5" y1="727.0184" y2="719.0184"/><polygon fill="#A80036" points="288.5,672.6984,284.5,678.6984,288.5,684.6984,292.5,678.6984,288.5,672.6984" style="stroke:#A80036;stroke-width:1.0;"/><text fill="#000000" font-family="sans-serif" font-size="13" lengthAdjust="spacing" textLength="8" x="279.8125" y="693.0012">4</text><!--MD5=[e30c4bb2f5ba6738f9f95d9dbb481d97]
link Success to Combination--><path codeLine="52" d="M288.5,532.0184 C288.5,550.0284 288.5,573.2784 288.5,593.0684 " fill="none" id="Success-to-Combination" style="stroke:#A80036;stroke-width:1.0;"/><polygon fill="#A80036" points="288.5,598.2884,292.5,589.2884,288.5,593.2884,284.5,589.2884,288.5,598.2884" style="stroke:#A80036;stroke-width:1.0;"/><!--MD5=[15eb40fa84ad8c1c1dc624d3656eba6d]
@startuml name Herencia
title MasterMind - Methods()\n


 class Mastermind {
    play()
    getCodeKeyboard()
    showResultScreen()
}
abstract class Player 
class Player {
    
}
class MakerPlayer {
    putCombination()
    isCorrectCombinationInput()
    getBlankWhite()
    checkWinnerResult()
   
}
class BreakerPlayer {
    putCombination()
    isCorrectCombinationInput()
}
abstract class Combination{
     putCombination()
    isCorrectCombinationInput()
}
class SecretCombination{
   
    getBlankWhite()
}
class ProposedCombination{
    
}
class Success{
boolean checkWinnerResult()
}
enum Color {
    Red,Blue,Yellow,Green, Orange, Purple
}
Mastermind *- -"2" Player
Player <|- -MakerPlayer
Player <|- -BreakerPlayer

Combination <|- -SecretCombination
Combination <|- -ProposedCombination

MakerPlayer - -> SecretCombination
MakerPlayer - -> Success
BreakerPlayer- ->ProposedCombination
Combination "4"*- -> Color
Success - -> Combination





@endumlD

PlantUML version 1.2021.00(Sun Jan 10 11:25:05 CET 2021)
(GPL source distribution)
Java Runtime: Java(TM) SE Runtime Environment
JVM: Java HotSpot(TM) 64-Bit Server VM
Default Encoding: UTF-8
Language: es
Country: ES
--></g></svg>